<svg id="Layer_1" height="512" viewBox="0 0 128 128" width="512" xmlns="http://www.w3.org/2000/svg" xmlns:xlink="http://www.w3.org/1999/xlink" data-name="Layer 1"><linearGradient id="linear-gradient" gradientUnits="userSpaceOnUse" x1="115.13" x2="29.266" y1="103.451" y2="17.586"><stop offset="0" stop-color="#5af0d7"/><stop offset="1" stop-color="#fdcc34"/></linearGradient><path d="m83 26.583a1.75 1.75 0 0 1 -1.75 1.75h-14.917a1.75 1.75 0 0 1 0-3.5h14.917a1.75 1.75 0 0 1 1.75 1.75zm-21.792-1.75h-.624a1.75 1.75 0 1 0 0 3.5h.624a1.75 1.75 0 0 0 0-3.5zm-33.75 34.789h-.458a1.75 1.75 0 0 0 0 3.5h.458a1.75 1.75 0 0 0 0-3.5zm-6.52 0h-10.688a1.75 1.75 0 0 0 0 3.5h10.688a1.75 1.75 0 0 0 0-3.5zm98.562 1.75a1.75 1.75 0 0 1 -1.75 1.75h-3.875v34.553a17 17 0 1 1 -33.482-4.175 1.75 1.75 0 0 1 3.394.858 13.509 13.509 0 0 0 11.813 16.753 11.94 11.94 0 0 1 5.432-22.576 1.727 1.727 0 0 1 .239.024c.158-.011.315-.024.475-.024a6.862 6.862 0 1 1 -6.808 6.112 8.443 8.443 0 1 0 13.1 10.558 1.714 1.714 0 0 1 .118-.142 13.5 13.5 0 0 0 -18.156-19.008 1.75 1.75 0 0 1 -1.785-3.011 16.886 16.886 0 0 1 14.41-1.344v-17.426a8.326 8.326 0 0 0 -8.317-8.316h-.094l-3.583 3.664h6.243a1.75 1.75 0 0 1 0 3.5h-30.141l2.643 6.372a1.75 1.75 0 0 1 -1.616 2.42h-4.01a1.751 1.751 0 0 1 -1.473-.8l-5.131-7.988h-23.521a1.75 1.75 0 0 1 0-3.5h13.983a4.5 4.5 0 0 1 -.381-3.664h-36.977a1.75 1.75 0 0 1 0-3.5h13.533a16.192 16.192 0 0 1 -4.316-4.3h-3.592a1.75 1.75 0 0 1 -1.75-1.75 33.121 33.121 0 0 1 33.083-33.087 1.75 1.75 0 0 1 1.75 1.75v5.1h36.372a28.578 28.578 0 0 1 28.545 28.545v3.733h3.875a1.75 1.75 0 0 1 0 3.5h-3.875v3.664h3.875a1.75 1.75 0 0 1 1.75 1.755zm-17.75 30.663a3.349 3.349 0 1 0 3.349 3.349 3.352 3.352 0 0 0 -3.349-3.349zm-58.891-68.345a4.874 4.874 0 0 0 -.6 2.346 4.954 4.954 0 0 0 4.948 4.948 4.876 4.876 0 0 0 2.478-.672 7.062 7.062 0 0 0 -6.826-6.622zm-4.1 2.346a8.48 8.48 0 0 1 .1-1.247 7.056 7.056 0 1 0 9.847 9.557 8.43 8.43 0 0 1 -9.948-8.31zm71.615 61.349v-38.66a25.074 25.074 0 0 0 -25.044-25.046h-34.853a10.613 10.613 0 1 1 -5.019-3.108v-3.7a29.627 29.627 0 0 0 -27.782 27.787h29.532a1.75 1.75 0 0 1 0 3.5h-23.188c2.026 1.944 5.788 4.3 12.188 4.3h13.673l1.9-1.941-.406-.778a1.75 1.75 0 0 1 3.1-1.619l.993 1.9a1.751 1.751 0 0 1 -.3 2.033l-4.312 4.41a1.249 1.249 0 0 0 .02 1.767 1.28 1.28 0 0 0 1.768-.02l5.833-5.966a1.247 1.247 0 0 0 .215-1.452l-2-3.833a1.75 1.75 0 0 1 3.1-1.619l2 3.833a4.739 4.739 0 0 1 -.815 5.518l-4.817 4.927h1.94a1.75 1.75 0 0 1 1.472.8l5.131 7.988h.434l-2.637-6.364a1.75 1.75 0 0 1 1.616-2.42h17.96a4.5 4.5 0 0 1 -.381-3.664h-15.695a1.75 1.75 0 0 1 0-3.5h18.35l1.9-1.941-.406-.778a1.75 1.75 0 0 1 3.1-1.619l.993 1.9a1.751 1.751 0 0 1 -.3 2.033l-4.312 4.41a1.249 1.249 0 0 0 .02 1.767 1.28 1.28 0 0 0 1.768-.02l5.833-5.966a1.247 1.247 0 0 0 .215-1.452l-2-3.833a1.75 1.75 0 0 1 3.1-1.619l2 3.833a4.733 4.733 0 0 1 .349 3.51 11.834 11.834 0 0 1 9.512 11.587v19.162a17.112 17.112 0 0 1 4.253 3.953zm-26.68 2.415a1.75 1.75 0 0 0 2.454-.325q.136-.177.278-.351a1.75 1.75 0 1 0 -2.706-2.22c-.119.146-.236.292-.35.441a1.75 1.75 0 0 0 .324 2.455z" fill="url(#linear-gradient)"/></svg>