<?xml version="1.0" encoding="utf-8"?>
<!-- Generator: Adobe Illustrator 24.2.1, SVG Export Plug-In . SVG Version: 6.00 Build 0)  -->
<svg version="1.1" id="Layer_1" xmlns="http://www.w3.org/2000/svg" xmlns:xlink="http://www.w3.org/1999/xlink" x="0px" y="0px"
	 viewBox="0 0 512 512" style="enable-background:new 0 0 512 512;" xml:space="preserve">
<style type="text/css">
	.st0{fill:url(#SVGID_1_);}
</style>
<linearGradient id="SVGID_1_" gradientUnits="userSpaceOnUse" x1="78.3809" y1="514.7997" x2="-7.4833" y2="600.6649" gradientTransform="matrix(4 0 0 -4 147 2473)">
	<stop  offset="0" style="stop-color:#5AF0D7"/>
	<stop  offset="1" style="stop-color:#FDCC34"/>
</linearGradient>
<path class="st0" d="M332,106.3c0,3.9-3.1,7-7,7h-59.7c-3.9,0-7-3.1-7-7s3.1-7,7-7H325C328.9,99.3,332,102.5,332,106.3z M244.8,99.3
	h-2.5c-3.9,0-7,3.1-7,7s3.1,7,7,7h2.5c3.9,0,7-3.1,7-7S248.7,99.3,244.8,99.3z M109.8,238.5H108c-3.9,0-7,3.1-7,7s3.1,7,7,7h1.8
	c3.9,0,7-3.1,7-7S113.7,238.5,109.8,238.5z M83.8,238.5H41c-3.9,0-7,3.1-7,7s3.1,7,7,7h42.8c3.9,0,7-3.1,7-7S87.6,238.5,83.8,238.5z
	 M478,245.5c0,3.9-3.1,7-7,7h-15.5v138.2c0,37.6-30.5,68-68,68c-37.6,0-68-30.5-68-68c0-5.6,0.7-11.2,2.1-16.6
	c0.9-3.7,4.8-6,8.5-5.1s6,4.8,5.1,8.5l0,0c-7.3,28.9,10.2,58.3,39.2,65.6c2.7,0.7,5.4,1.1,8.1,1.4c-23.5-12-32.8-40.8-20.8-64.2
	c8.2-16,24.6-26.1,42.6-26.1c0.3,0,0.6,0,1,0.1c0.6,0,1.3-0.1,1.9-0.1c15.2,0,27.5,12.2,27.5,27.4c0,15.2-12.2,27.5-27.4,27.5
	s-27.5-12.2-27.5-27.4c0-1,0.1-2,0.2-3.1c-12.9,13.5-12.4,34.9,1.1,47.7c13.5,12.9,34.9,12.4,47.7-1.1c1.3-1.4,2.5-2.9,3.6-4.5
	c0.1-0.2,0.3-0.4,0.5-0.6c16.3-25,9.2-58.4-15.7-74.7c-17.2-11.2-39.2-11.7-56.9-1.3c-3.3,2-7.6,0.9-9.6-2.5s-0.9-7.6,2.5-9.6
	c17.4-10.4,38.6-12.3,57.6-5.4v-69.7c0-18.4-14.9-33.2-33.3-33.3h-0.4l-14.3,14.7h25c3.9,0,7,3.1,7,7s-3.1,7-7,7H266.9l10.6,25.5
	c1.5,3.6-0.2,7.7-3.8,9.1c-0.8,0.4-1.8,0.5-2.7,0.5h-16c-2.4,0-4.6-1.2-5.9-3.2l-20.5-32h-94.1c-3.9,0-7-3.1-7-7s3.1-7,7-7h55.9
	c-2.6-4.4-3.1-9.8-1.5-14.7H41c-3.9,0-7-3.1-7-7s3.1-7,7-7h54.1c-6.8-4.6-12.6-10.4-17.3-17.2H63.5c-3.9,0-7-3.1-7-7
	c0.1-73.1,59.3-132.3,132.3-132.3c3.9,0,7,3.1,7,7v20.4h145.5c63,0.1,114.1,51.2,114.2,114.2v14.9H471c3.9,0,7,3.1,7,7
	c0,3.9-3.1,7-7,7h-15.5v14.7H471C474.9,238.5,478,241.6,478,245.5C478,245.5,478,245.5,478,245.5L478,245.5z M407,368.1
	c-7.4,0-13.4,6-13.4,13.4s6,13.4,13.4,13.4s13.4-6,13.4-13.4l0,0C420.4,374.1,414.4,368.1,407,368.1z M171.4,94.8
	c-1.6,2.9-2.4,6.1-2.4,9.4c0,10.9,8.9,19.8,19.8,19.8c3.5,0,6.9-0.9,9.9-2.7C197.8,106.7,186,95.2,171.4,94.8z M155,104.1
	c0-1.7,0.1-3.3,0.4-5c-13.2,8.3-17.1,25.8-8.7,38.9c8.3,13.2,25.8,17.1,38.9,8.7c3.8-2.4,6.9-5.6,9.2-9.5
	c-18.3,3.4-35.9-8.8-39.2-27.1C155.2,108.3,155,106.2,155,104.1L155,104.1z M441.5,349.5V194.9c-0.1-55.3-44.9-100.1-100.2-100.2
	H201.9c15.7,17.4,14.3,44.2-3.1,60s-44.2,14.3-60-3.1s-14.3-44.2,3.1-60c10.8-9.8,25.9-13.3,39.9-9.4V67.5
	C122,71.1,74.3,118.8,70.7,178.6h118.1c3.9,0,7,3.1,7,7s-3.1,7-7,7H96.1c8.1,7.8,23.2,17.2,48.8,17.2h54.7l7.6-7.8l-1.6-3.1
	c-1.7-3.5-0.2-7.7,3.3-9.3c3.3-1.6,7.3-0.3,9.1,2.8l4,7.6c1.4,2.7,0.9,6-1.2,8.1l-17.2,17.6c-1.9,2-1.9,5.1,0.1,7.1c0,0,0,0,0,0
	c2,1.9,5.1,1.8,7.1-0.1l23.3-23.9c1.5-1.5,1.9-3.9,0.9-5.8l-8-15.3c-1.7-3.5-0.2-7.7,3.3-9.3c3.3-1.6,7.3-0.3,9.1,2.8l8,15.3
	c3.8,7.3,2.5,16.2-3.3,22.1l-19.3,19.7h7.8c2.4,0,4.6,1.2,5.9,3.2l20.5,32h1.7L250,248.2c-1.5-3.6,0.2-7.7,3.8-9.1
	c0.8-0.4,1.8-0.5,2.7-0.5h71.8c-2.6-4.4-3.1-9.8-1.5-14.7H264c-3.9,0-7-3.1-7-7s3.1-7,7-7h73.4l7.6-7.8l-1.6-3.1
	c-1.7-3.5-0.2-7.7,3.3-9.3c3.3-1.6,7.3-0.3,9.1,2.8l4,7.6c1.4,2.7,0.9,6-1.2,8.1l-17.2,17.6c-1.9,2-1.9,5.1,0.1,7.1c0,0,0,0,0,0
	c2,1.9,5.1,1.8,7.1-0.1l23.3-23.9c1.5-1.5,1.9-3.9,0.9-5.8l-8-15.3c-1.7-3.5-0.2-7.7,3.3-9.3c3.3-1.6,7.3-0.3,9.1,2.8l8,15.3
	c2.3,4.3,2.8,9.4,1.4,14c22.1,4.4,38,23.8,38,46.3v76.6C431,338,436.8,343.3,441.5,349.5L441.5,349.5z M334.8,359.2
	c3.1,2.4,7.5,1.8,9.8-1.3c0,0,0,0,0,0c0.4-0.5,0.7-0.9,1.1-1.4c2.5-3,2-7.4-1-9.9c-3-2.5-7.4-2-9.9,1c-0.5,0.6-0.9,1.2-1.4,1.8
	C331.1,352.4,331.7,356.8,334.8,359.2C334.8,359.2,334.8,359.2,334.8,359.2L334.8,359.2z"/>
</svg>
